<?xml version="1.0" encoding="utf-8"?>
<!-- Generator: Adobe Illustrator 16.0.0, SVG Export Plug-In . SVG Version: 6.00 Build 0)  -->
<!DOCTYPE svg PUBLIC "-//W3C//DTD SVG 1.1//EN" "http://www.w3.org/Graphics/SVG/1.1/DTD/svg11.dtd">
<svg version="1.1" id="Layer_1" xmlns="http://www.w3.org/2000/svg" xmlns:xlink="http://www.w3.org/1999/xlink" x="0px" y="0px"
	 width="80px" height="80px" viewBox="67 -22 80 80" enable-background="new 67 -22 80 80" xml:space="preserve">
<g>
	<circle fill="#5C5D5D" cx="107.161" cy="18.059" r="40"/>
	<path fill="#FFFFFF" d="M107.161-17.994c0.417,0,0.833,0.007,1.246,0.021l0.087-2.579c-0.442-0.015-0.887-0.022-1.333-0.022
		V-17.994z M104.316-17.884c0.412-0.032,0.827-0.058,1.243-0.076l-0.112-2.578c-0.446,0.02-0.89,0.046-1.331,0.081L104.316-17.884z
		 M100.613-17.403c0.407-0.074,0.816-0.142,1.229-0.203l-0.377-2.553c-0.441,0.065-0.88,0.137-1.317,0.217L100.613-17.403z
		 M96.98-16.54c0.397-0.117,0.797-0.227,1.201-0.33l-0.64-2.5c-0.432,0.111-0.861,0.229-1.287,0.354L96.98-16.54z M93.457-15.305
		c0.383-0.157,0.77-0.308,1.16-0.452l-0.896-2.42c-0.418,0.155-0.833,0.316-1.244,0.485L93.457-15.305z M90.085-13.712
		c0.365-0.196,0.733-0.386,1.104-0.57l-1.142-2.314c-0.398,0.197-0.792,0.4-1.183,0.61L90.085-13.712z M86.894-11.779
		c0.343-0.233,0.69-0.46,1.041-0.681l-1.375-2.184c-0.376,0.237-0.748,0.48-1.115,0.729L86.894-11.779z M83.917-9.526
		c0.317-0.267,0.64-0.528,0.966-0.785l-1.592-2.03c-0.35,0.274-0.695,0.555-1.035,0.841L83.917-9.526z M81.186-6.978
		c0.289-0.298,0.583-0.592,0.881-0.88l-1.793-1.856c-0.319,0.309-0.634,0.623-0.943,0.943L81.186-6.978z M78.73-4.161
		c0.256-0.327,0.519-0.649,0.786-0.967l-1.973-1.663c-0.287,0.34-0.568,0.686-0.842,1.036L78.73-4.161z M76.576-1.106
		c0.222-0.352,0.45-0.7,0.683-1.043L75.125-3.6c-0.25,0.368-0.495,0.74-0.732,1.118L76.576-1.106z M74.748,2.155
		c0.185-0.373,0.375-0.743,0.572-1.109l-2.273-1.223c-0.211,0.392-0.415,0.789-0.613,1.188L74.748,2.155z M73.269,5.59
		c0.145-0.391,0.296-0.779,0.454-1.163l-2.387-0.98c-0.168,0.412-0.331,0.828-0.486,1.247L73.269,5.59z M72.157,9.154
		c0.103-0.403,0.213-0.803,0.329-1.2L70.01,7.228c-0.125,0.427-0.243,0.855-0.354,1.288L72.157,9.154z M71.421,12.815
		c0.061-0.412,0.128-0.822,0.203-1.229l-2.538-0.465c-0.08,0.437-0.153,0.875-0.218,1.316L71.421,12.815z M71.067,16.533
		c0.018-0.417,0.043-0.831,0.076-1.243l-2.573-0.2c-0.034,0.442-0.061,0.885-0.081,1.331L71.067,16.533z M71.094,20.271
		c-0.024-0.412-0.042-0.828-0.051-1.245l-2.58,0.063c0.011,0.446,0.029,0.891,0.055,1.333L71.094,20.271z M71.503,23.982
		c-0.066-0.408-0.126-0.819-0.179-1.232l-2.56,0.326c0.057,0.443,0.12,0.884,0.191,1.32L71.503,23.982z M72.293,27.632
		c-0.108-0.399-0.21-0.802-0.306-1.206l-2.512,0.59c0.102,0.433,0.211,0.864,0.328,1.292L72.293,27.632z M73.458,31.179
		c-0.149-0.386-0.293-0.775-0.43-1.168l-2.437,0.848c0.146,0.421,0.3,0.838,0.46,1.253L73.458,31.179z M74.984,34.581
		c-0.189-0.368-0.371-0.74-0.548-1.115L72.1,34.562c0.189,0.402,0.384,0.801,0.586,1.196L74.984,34.581z M76.854,37.81
		c-0.226-0.349-0.446-0.698-0.66-1.054l-2.21,1.332c0.23,0.38,0.465,0.757,0.708,1.129L76.854,37.81z M79.048,40.829
		c-0.261-0.322-0.516-0.649-0.766-0.981L76.221,41.4c0.267,0.355,0.541,0.706,0.82,1.051L79.048,40.829z M81.542,43.609
		c-0.293-0.294-0.58-0.594-0.863-0.897l-1.891,1.756c0.302,0.326,0.61,0.646,0.924,0.961L81.542,43.609z M84.31,46.12
		c-0.322-0.263-0.639-0.531-0.951-0.805l-1.701,1.94c0.334,0.294,0.674,0.581,1.019,0.862L84.31,46.12z M87.322,48.333
		c-0.348-0.228-0.69-0.462-1.029-0.703L84.8,49.735c0.363,0.258,0.731,0.508,1.103,0.754L87.322,48.333z M90.546,50.225
		c-0.369-0.191-0.735-0.39-1.097-0.594l-1.267,2.248c0.387,0.22,0.779,0.432,1.175,0.637L90.546,50.225z M93.951,51.772
		c-0.388-0.153-0.772-0.312-1.154-0.477l-1.027,2.367c0.408,0.177,0.821,0.348,1.237,0.511L93.951,51.772z M97.496,52.956
		c-0.4-0.11-0.799-0.229-1.194-0.353l-0.774,2.461c0.423,0.134,0.85,0.26,1.28,0.38L97.496,52.956z M101.141,53.765
		c-0.41-0.069-0.818-0.146-1.224-0.228l-0.515,2.529c0.435,0.088,0.873,0.169,1.312,0.243L101.141,53.765z M104.852,54.19
		c-0.416-0.025-0.83-0.06-1.241-0.1l-0.251,2.569c0.441,0.043,0.885,0.078,1.33,0.105L104.852,54.19z M108.588,54.235
		c-0.414,0.017-0.829,0.025-1.246,0.028l0.013,2.58c0.446-0.002,0.891-0.013,1.333-0.029L108.588,54.235z M112.308,53.9
		c-0.41,0.058-0.822,0.109-1.236,0.153l0.275,2.565c0.444-0.046,0.887-0.102,1.325-0.165L112.308,53.9z M115.972,53.182
		c-0.402,0.102-0.807,0.194-1.214,0.281l0.541,2.524c0.436-0.094,0.869-0.194,1.301-0.302L115.972,53.182z M119.541,52.087
		c-0.389,0.143-0.782,0.277-1.177,0.407l0.799,2.453c0.424-0.139,0.845-0.283,1.262-0.436L119.541,52.087z M122.972,50.631
		c-0.372,0.181-0.746,0.354-1.126,0.523l1.05,2.358c0.406-0.181,0.81-0.368,1.207-0.563L122.972,50.631z M126.236,48.825
		c-0.352,0.218-0.707,0.432-1.067,0.639l1.289,2.235c0.385-0.222,0.767-0.45,1.142-0.685L126.236,48.825z M129.298,46.69
		c-0.327,0.254-0.658,0.503-0.995,0.746l1.511,2.092c0.36-0.262,0.717-0.527,1.067-0.8L129.298,46.69z M132.127,44.251
		c-0.3,0.287-0.604,0.569-0.915,0.845l1.719,1.926c0.332-0.296,0.658-0.599,0.979-0.904L132.127,44.251z M134.691,41.534
		c-0.27,0.316-0.544,0.627-0.824,0.935l1.906,1.739c0.3-0.329,0.595-0.663,0.884-1.002L134.691,41.534z M136.963,38.566
		c-0.235,0.343-0.476,0.681-0.723,1.016l2.075,1.532c0.265-0.357,0.522-0.72,0.774-1.088L136.963,38.566z M138.918,35.38
		c-0.199,0.365-0.404,0.727-0.615,1.085l2.223,1.311c0.226-0.384,0.446-0.771,0.659-1.162L138.918,35.38z M140.532,32.007
		c-0.16,0.384-0.327,0.766-0.499,1.144l2.346,1.074c0.186-0.406,0.364-0.814,0.536-1.227L140.532,32.007z M141.785,28.485
		c-0.118,0.398-0.244,0.794-0.376,1.188l2.445,0.822c0.143-0.42,0.277-0.844,0.404-1.271L141.785,28.485z M142.666,24.856
		c-0.076,0.41-0.161,0.816-0.252,1.22l2.52,0.564c0.097-0.432,0.187-0.868,0.269-1.307L142.666,24.856z M143.165,21.156
		c-0.033,0.415-0.075,0.829-0.123,1.239l2.563,0.302c0.052-0.441,0.097-0.884,0.133-1.328L143.165,21.156z M143.284,17.421
		c0.004,0.237,0.006,0.475,0.006,0.713c0,0.178-0.001,0.356-0.004,0.535l2.581,0.036c0.002-0.189,0.004-0.38,0.004-0.571
		c0-0.254-0.003-0.509-0.008-0.762L143.284,17.421z M143.021,13.695c0.051,0.411,0.093,0.824,0.13,1.239l2.57-0.226
		c-0.039-0.444-0.086-0.886-0.139-1.327L143.021,13.695z M142.375,10.018c0.093,0.403,0.18,0.81,0.258,1.218l2.533-0.49
		c-0.084-0.438-0.176-0.873-0.275-1.305L142.375,10.018z M141.353,6.427c0.133,0.392,0.261,0.787,0.382,1.185l2.47-0.75
		c-0.13-0.426-0.268-0.85-0.411-1.27L141.353,6.427z M139.964,2.968c0.174,0.375,0.341,0.754,0.501,1.136l2.378-1.003
		c-0.173-0.409-0.352-0.815-0.538-1.217L139.964,2.968z M138.222-0.331c0.214,0.355,0.419,0.715,0.619,1.079l2.261-1.244
		c-0.215-0.389-0.435-0.775-0.662-1.156L138.222-0.331z M136.149-3.434c0.248,0.332,0.49,0.669,0.727,1.01l2.121-1.47
		c-0.253-0.365-0.513-0.726-0.778-1.082L136.149-3.434z M133.767-6.31c0.281,0.305,0.557,0.616,0.828,0.931l1.958-1.68
		c-0.29-0.337-0.585-0.67-0.886-0.998L133.767-6.31z M131.101-8.927c0.311,0.275,0.617,0.556,0.918,0.842l1.777-1.873
		c-0.324-0.306-0.652-0.606-0.984-0.901L131.101-8.927z M128.178-11.256c0.339,0.242,0.672,0.489,1.002,0.743l1.574-2.044
		c-0.354-0.271-0.711-0.537-1.072-0.796L128.178-11.256z M125.031-13.274c0.362,0.206,0.719,0.418,1.072,0.636l1.355-2.196
		c-0.379-0.234-0.763-0.46-1.149-0.682L125.031-13.274z M121.691-14.955c0.382,0.168,0.758,0.342,1.133,0.522l1.12-2.325
		c-0.401-0.193-0.806-0.38-1.215-0.56L121.691-14.955z M118.193-16.28c0.396,0.127,0.791,0.261,1.182,0.401l0.872-2.429
		c-0.418-0.151-0.842-0.294-1.268-0.431L118.193-16.28z M114.583-17.232c0.407,0.085,0.812,0.177,1.214,0.275l0.614-2.506
		c-0.431-0.106-0.865-0.204-1.302-0.295L114.583-17.232z M110.893-17.804c0.414,0.042,0.826,0.092,1.235,0.148l0.352-2.557
		c-0.438-0.061-0.88-0.114-1.324-0.159L110.893-17.804z"/>
	<path fill="#FFFFFF" d="M88.025-1.87l0.436-0.454l-0.605-0.582l-2.231,2.322l0.605,0.582l0.582-0.605l1.574,1.513
		c-0.104,0.234-0.241,0.438-0.408,0.613c-0.607,0.631-1.311,0.91-2.112,0.835c-0.802-0.074-1.598-0.491-2.388-1.25
		c-0.807-0.775-1.284-1.546-1.431-2.313C81.9-1.976,82.101-2.645,82.65-3.217c0.204-0.212,0.438-0.4,0.7-0.564
		c0.262-0.164,0.557-0.304,0.883-0.419l0.652,0.532l0.66-0.687l-1.283-1.234c-0.402,0.244-0.788,0.516-1.157,0.815
		c-0.37,0.3-0.727,0.628-1.069,0.986c-0.967,1.005-1.438,2.05-1.416,3.134c0.022,1.083,0.538,2.109,1.543,3.075
		c0.979,0.941,2.022,1.406,3.132,1.397c1.109-0.008,2.123-0.489,3.04-1.444c0.516-0.537,1.08-1.31,1.694-2.319L88.025-1.87z"/>
	<polygon fill="#FFFFFF" points="95.629,-5.229 94.844,-4.776 95.3,-3.985 92.824,-2.558 91.32,-5.166 92.838,-6.041 93.118,-5.555 
		93.845,-5.974 92.866,-7.673 92.139,-7.254 92.419,-6.768 90.901,-5.893 89.504,-8.314 91.749,-9.609 92.168,-8.882 92.955,-9.335 
		92.116,-10.789 86.84,-7.747 87.259,-7.02 87.986,-7.439 91.34,-1.623 90.613,-1.204 91.033,-0.477 96.539,-3.653 	"/>
	<path fill="#FFFFFF" d="M98.902-6.068c-0.567-0.534-0.976-1.324-1.224-2.373c-0.249-1.048-0.239-1.938,0.03-2.671
		c0.269-0.731,0.748-1.179,1.438-1.342c0.694-0.165,1.324,0.021,1.893,0.554c0.568,0.534,0.977,1.325,1.225,2.374
		c0.248,1.044,0.237,1.934-0.031,2.667c-0.268,0.733-0.75,1.183-1.442,1.346C100.1-5.349,99.47-5.535,98.902-6.068z M103.715-6.556
		c0.553-0.939,0.672-2.072,0.357-3.4c-0.315-1.328-0.929-2.287-1.845-2.879c-0.915-0.591-2.007-0.736-3.276-0.436
		c-1.269,0.301-2.179,0.921-2.73,1.859c-0.551,0.938-0.668,2.071-0.354,3.399s0.929,2.288,1.842,2.879
		c0.913,0.592,2.004,0.738,3.273,0.437C102.252-4.997,103.163-5.616,103.715-6.556z"/>
	<path fill="#FFFFFF" d="M108.616-13.137l0.56,0.047c0.546,0.047,0.945,0.195,1.2,0.443c0.254,0.25,0.36,0.601,0.322,1.052
		c-0.051,0.599-0.247,1.035-0.59,1.308c-0.342,0.272-0.83,0.381-1.467,0.327l-0.295-0.025L108.616-13.137z M108.924-9.127
		l1.948,3.763l2.147,0.183l0.073-0.836l-0.56-0.047l-1.948-3.25c0.564-0.172,0.995-0.445,1.3-0.817
		c0.303-0.373,0.479-0.843,0.527-1.412c0.058-0.67-0.142-1.208-0.595-1.613c-0.456-0.405-1.135-0.646-2.034-0.722l-3.604-0.308
		l-0.071,0.836l0.836,0.071l-0.57,6.69l-0.836-0.071l-0.071,0.836l3.209,0.273l0.072-0.836l-0.701-0.06l0.232-2.734L108.924-9.127z"
		/>
	<path fill="#FFFFFF" d="M121.059-5.129l0.582,0.239l0.317-0.777l-2.979-1.221l-0.32,0.777l0.776,0.318l-0.826,2.02
		c-0.258-0.011-0.497-0.063-0.721-0.154c-0.81-0.332-1.328-0.885-1.553-1.657c-0.227-0.772-0.131-1.667,0.284-2.681
		c0.424-1.035,0.966-1.762,1.623-2.181c0.661-0.418,1.356-0.478,2.09-0.177c0.271,0.111,0.534,0.259,0.781,0.443
		c0.249,0.184,0.488,0.406,0.716,0.667l-0.255,0.802l0.882,0.361l0.676-1.647c-0.376-0.284-0.769-0.542-1.185-0.775
		c-0.416-0.234-0.852-0.444-1.311-0.632c-1.29-0.528-2.435-0.583-3.435-0.163c-0.998,0.42-1.762,1.275-2.291,2.566
		c-0.515,1.255-0.564,2.398-0.148,3.426c0.415,1.029,1.237,1.794,2.462,2.295c0.688,0.282,1.615,0.523,2.779,0.722L121.059-5.129z"
		/>
	<polygon fill="#FFFFFF" points="128.037,-5.861 128.521,-6.546 125.721,-8.53 125.237,-7.845 125.923,-7.36 122.039,-1.881 
		121.355,-2.367 120.869,-1.683 123.67,0.301 124.153,-0.383 123.471,-0.869 127.352,-6.347 	"/>
	<path fill="#FFFFFF" d="M131.572-1.305l-1.655,3.231l-1.762-2.011L131.572-1.305z M129.488,2.762l-0.781,1.526l-0.555-0.634
		l-0.632,0.553l2.066,2.359l0.63-0.552l-0.325-0.373l3.771-7.322L132.8-2.667l-7.757,2.769l-0.328-0.373l-0.632,0.553l1.499,1.711
		l0.63-0.553l-0.554-0.633l1.612-0.576L129.488,2.762z"/>
	<path fill="#FFFFFF" d="M117.616,9.435h-0.56v0.56h2.286v-0.56h-0.56V7.567l1.58-2.608h0.325v-0.56h-1.452v0.56h0.461l-1.172,1.943
		l-1.189-1.943h0.464v-0.56h-2.094v0.56h0.332l1.578,2.608V9.435z M108.728,9.435v0.56h1.814v-0.56h-0.489V5.843l1.492,3.546h0.555
		l1.515-3.508l0.007,3.553h-0.469v0.56h2.055v-0.56h-0.56V4.959h0.56v-0.56h-1.561l-1.595,3.693l-1.57-3.693h-1.754v0.56h0.56v4.476
		H108.728z M104.993,10.051V4.959h0.56v-0.56h-1.887v0.56h0.56v3.436l-2.782-3.996h-1.357v0.56h0.559v4.476h-0.559v0.56h1.886v-0.56
		h-0.56V6.08l2.78,3.971H104.993z M95.461,8.924c-0.287-0.434-0.43-1.009-0.43-1.728s0.143-1.294,0.43-1.728s0.667-0.65,1.139-0.65
		c0.475,0,0.856,0.217,1.143,0.65c0.286,0.434,0.43,1.009,0.43,1.728c0,0.716-0.144,1.291-0.43,1.726
		c-0.287,0.435-0.667,0.652-1.143,0.652C96.128,9.575,95.748,9.358,95.461,8.924z M98.659,9.348
		c0.503-0.524,0.754-1.241,0.754-2.151s-0.251-1.627-0.754-2.151c-0.503-0.524-1.189-0.787-2.058-0.787
		c-0.87,0-1.555,0.262-2.057,0.787c-0.501,0.524-0.752,1.241-0.752,2.151s0.251,1.626,0.752,2.151s1.187,0.786,2.057,0.786
		C97.47,10.134,98.156,9.872,98.659,9.348z"/>
	<path fill="#FFFFFF" d="M124.285,43.687h-1.008V44.7h-3.175v-3.346h1.946v0.624h0.933v-2.18h-0.933v0.624h-1.946v-3.106h2.879
		v0.933h1.008v-1.865h-6.767v0.933h0.933v7.46h-0.933v0.933h7.063V43.687z M105.371,44.776v0.933h3.023v-0.933h-0.812v-5.985
		l2.486,5.909h0.925l2.524-5.847l0.013,5.923h-0.781v0.933h3.42v-0.933h-0.933v-7.46h0.933v-0.933h-2.602l-2.656,6.155l-2.617-6.155
		h-2.924v0.933h0.933v7.46H105.371z M104.363,37.316v-0.933h-3.812v0.933h0.933v7.46h-0.933v0.933h3.812v-0.933h-0.933v-7.46
		H104.363z M92.997,37.316h0.949c1.139,0,1.994,0.295,2.563,0.885c0.569,0.591,0.854,1.478,0.854,2.662
		c0,1.276-0.274,2.235-0.823,2.877c-0.549,0.641-1.372,0.96-2.469,0.96h-1.074V37.316z M95,45.709c1.344,0,2.418-0.438,3.223-1.317
		c0.805-0.878,1.207-2.05,1.207-3.516c0-1.411-0.415-2.513-1.244-3.305s-1.983-1.188-3.462-1.188h-4.606v0.933h0.933v7.46h-0.933
		v0.933H95z"/>
	<path fill="#FFFFFF" d="M101.612,29.107L101.612,29.107c-0.002,0,2.986-4.392,3.275-4.821c0.184-0.076,1.245-0.753,1.264-2.025
		c-0.456-0.751-1.113-1.474-2.088-1.49h-0.009c-0.44,0.017-0.882-0.198-1.235-0.645l-0.083-0.117l-2.433-4.443l0.292-0.425
		l2.977,4.568l0.35-0.512l-3.061-4.44l0.254-0.372l3.08,4.467l0.292-0.422l-3.082-4.468l0.287-0.409l3.08,4.462l0.344-0.497
		l-3.179-4.325l0.268-0.386l2.93,3.307l0.144,0.184c0.402,0.583,0.579,1.375,0.521,2.137c0.039,0.965,0.254,1.682,0.536,2.229
		c5.461-7.747,7.521-6.919,7.521-6.919l0.163,0.244c0,0-3.673,5.338-5.944,8.637c0.797,1.154,4.637,6.717,4.637,6.717v0.002
		l0.012,0.012c0.275,0.398,0.272,1.041,0,1.441c-0.275,0.395-0.721,0.395-0.99,0l-0.011-0.019l-0.002,0.002
		c0,0-3.842-5.569-4.635-6.719c-0.414,0.604-0.691,1.009-0.748,1.087c-0.334,0.492-3.725,5.4-3.725,5.4h-0.002l-0.008,0.014
		c-0.274,0.399-0.724,0.399-0.997,0c-0.276-0.396-0.276-1.043,0-1.445L101.612,29.107z"/>
	<circle fill="#FFFFFF" cx="122.227" cy="21.951" r="1.715"/>
	<circle fill="#FFFFFF" cx="93.417" cy="21.951" r="1.715"/>
</g>
</svg>
