<?xml version="1.0" encoding="utf-8"?>
<!-- Generator: Adobe Illustrator 16.0.0, SVG Export Plug-In . SVG Version: 6.00 Build 0)  -->
<svg version="1.2" baseProfile="tiny" id="Layer_1" xmlns="http://www.w3.org/2000/svg" xmlns:xlink="http://www.w3.org/1999/xlink"
	 x="0px" y="0px" width="169.625px" height="60px" viewBox="0 0 169.625 60" xml:space="preserve">
<g>
	<path fill="#FFFFFF" d="M79.735,19.141c-2.383,0.531-4.344,0.797-5.883,0.797c-2.734,0-4.902-0.82-6.504-2.461
		s-2.402-3.863-2.402-6.668c0-2.883,0.791-5.117,2.373-6.703s3.814-2.379,6.697-2.379c1.023,0,2.023,0.061,3,0.182
		s1.934,0.307,2.871,0.557v3.68h-1.969L77.778,4.41c-0.64-0.32-1.27-0.559-1.89-0.715c-0.621-0.156-1.235-0.234-1.843-0.234
		c-1.639,0-2.924,0.658-3.856,1.975c-0.932,1.316-1.398,3.131-1.398,5.443c0,2.266,0.519,4.049,1.556,5.35s2.461,1.951,4.271,1.951
		c0.499,0,0.999-0.09,1.498-0.27v-4.512H74.38v-1.734h6.656v1.734h-1.301V19.141z"/>
	<path fill="#FFFFFF" d="M94.85,19c-1.203,0.531-2.602,0.797-4.195,0.797c-2.336,0-4.154-0.604-5.455-1.811
		s-1.951-2.896-1.951-5.068c0-1.953,0.576-3.537,1.729-4.752s2.654-1.822,4.506-1.822c1.789,0,3.131,0.549,4.025,1.646
		s1.342,2.744,1.342,4.939v0.504h-8.027c0.094,1.402,0.477,2.456,1.148,3.161s1.637,1.058,2.895,1.058
		c1.305,0,2.633-0.309,3.984-0.926V19z M86.881,11.699h4.57v-0.305c0-1.109-0.17-1.939-0.511-2.49
		c-0.34-0.551-0.852-0.826-1.533-0.826c-0.752,0-1.339,0.301-1.762,0.902S86.967,10.488,86.881,11.699z"/>
	<path fill="#FFFFFF" d="M104.188,19.797c-2.078,0-3.712-0.6-4.904-1.799s-1.787-2.842-1.787-4.928s0.596-3.729,1.787-4.928
		s2.826-1.799,4.904-1.799c2.07,0,3.701,0.6,4.893,1.799s1.787,2.842,1.787,4.928s-0.596,3.729-1.787,4.928
		S106.258,19.797,104.188,19.797z M104.193,18.063c0.889,0,1.61-0.461,2.164-1.383s0.83-2.125,0.83-3.609s-0.276-2.688-0.83-3.609
		s-1.275-1.383-2.164-1.383c-0.896,0-1.619,0.461-2.169,1.383s-0.825,2.125-0.825,3.609s0.275,2.688,0.825,3.609
		S103.297,18.063,104.193,18.063z"/>
	<path fill="#FFFFFF" d="M118.002,10.727v7.043h1.734v1.734h-6.949V17.77h1.734V8.371h-1.734V6.637h5.215v2.426
		c0.99-1.813,2.354-2.719,4.092-2.719c0.28,0,0.553,0.051,0.818,0.152v3.75h-2.027V9.063
		C119.787,9.063,118.826,9.617,118.002,10.727z"/>
	<path fill="#FFFFFF" d="M127.258,19.047c-0.891-0.477-1.336-1.039-1.336-1.688c0-0.844,0.816-1.648,2.449-2.414
		c-0.961-0.359-1.682-0.879-2.162-1.559s-0.721-1.52-0.721-2.52c0-1.375,0.473-2.473,1.418-3.293s2.215-1.23,3.809-1.23
		c0.5,0,0.971,0.039,1.412,0.117s0.857,0.195,1.248,0.352l4.793-0.387l-0.867,2.156l-2.156-0.422
		c0.578,0.845,0.867,1.722,0.867,2.629c0,1.346-0.477,2.443-1.429,3.292s-2.185,1.273-3.699,1.273c-0.296,0-0.573-0.023-0.831-0.07
		c-0.73,0.297-1.096,0.684-1.096,1.16c0,0.445,0.499,0.668,1.496,0.668h1.963c1.823,0,3.12,0.23,3.892,0.691
		c0.764,0.469,1.146,1.254,1.146,2.355c0,1.281-0.614,2.313-1.844,3.093c-1.229,0.781-2.852,1.172-4.865,1.172
		c-1.818,0-3.306-0.258-4.461-0.773s-1.732-1.175-1.732-1.98c0-0.586,0.226-1.098,0.677-1.535S126.355,19.336,127.258,19.047z
		 M128.84,19.504c-0.313,0.242-0.549,0.49-0.709,0.744s-0.24,0.518-0.24,0.791c0,0.547,0.255,0.959,0.765,1.236
		s1.271,0.416,2.283,0.416c0.941,0,1.737-0.201,2.388-0.603c0.649-0.402,0.975-0.893,0.975-1.471c0-0.438-0.177-0.732-0.531-0.885
		c-0.354-0.152-1.04-0.229-2.06-0.229H128.84z M128.676,10.914c0,0.859,0.193,1.561,0.58,2.104s0.889,0.814,1.506,0.814
		c0.625,0,1.125-0.275,1.5-0.826s0.563-1.283,0.563-2.197c0-0.984-0.172-1.721-0.516-2.209s-0.859-0.732-1.547-0.732
		c-0.695,0-1.217,0.254-1.564,0.762S128.676,9.898,128.676,10.914z"/>
	<path fill="#FFFFFF" d="M144.868,6.637V17.77h1.734v1.734h-6.949V17.77h1.734V8.371h-1.734V6.637H144.868z M141.388,4.469V1h3.48
		v3.469H141.388z"/>
	<path fill="#FFFFFF" d="M155.905,18.016c-0.616,0.594-1.246,1.039-1.89,1.336s-1.301,0.445-1.972,0.445
		c-1.146,0-2.093-0.354-2.838-1.061s-1.117-1.6-1.117-2.678c0-1.469,0.542-2.545,1.626-3.229c1.085-0.684,2.793-1.025,5.125-1.025
		h0.585v-1.523c0-1.469-0.715-2.203-2.145-2.203c-0.777,0-1.5,0.258-2.168,0.773l-0.152,1.113h-1.887V7.422
		c1.563-0.719,3.152-1.078,4.77-1.078c3.375,0,5.063,1.301,5.063,3.902v5.648c0,1.258,0.332,1.887,0.996,1.887
		c0.125,0,0.273-0.02,0.445-0.059l0.152,1.781c-0.604,0.195-1.194,0.293-1.774,0.293C157.456,19.797,156.517,19.203,155.905,18.016z
		 M155.425,16.668v-3.305h-0.467c-1.153,0-2.02,0.191-2.601,0.574c-0.58,0.383-0.87,0.961-0.87,1.734
		c0,0.555,0.171,1.02,0.514,1.395s0.771,0.563,1.286,0.563c0.335,0,0.681-0.08,1.039-0.24S155.051,16.988,155.425,16.668z"/>
	<path fill="#FFFFFF" d="M99.821,36.625c-0.576,0-1.044-0.166-1.404-0.498s-0.54-0.764-0.54-1.293c0-0.99,0.363-1.873,1.089-2.648
		c0.726-0.777,1.553-1.166,2.48-1.166c0.6,0,1.08,0.164,1.443,0.492c0.362,0.326,0.544,0.762,0.544,1.305
		c0,0.996-0.365,1.881-1.097,2.652C101.607,36.24,100.769,36.625,99.821,36.625z M100.246,35.863c0.43,0,0.81-0.279,1.141-0.842
		c0.33-0.561,0.495-1.205,0.495-1.932c0-0.436-0.068-0.764-0.205-0.98c-0.137-0.219-0.343-0.328-0.62-0.328
		c-0.423,0-0.8,0.281-1.13,0.846c-0.331,0.563-0.496,1.205-0.496,1.928c0,0.398,0.074,0.715,0.222,0.953
		C99.801,35.744,99.999,35.863,100.246,35.863z"/>
	<path fill="#FFFFFF" d="M104.156,36.504l0.922-4.639h-0.722l0.142-0.723h2.172l-0.447,2.248c0.382-0.74,0.813-1.32,1.291-1.74
		s0.948-0.631,1.408-0.631c0.254,0,0.469,0.094,0.645,0.281s0.265,0.414,0.265,0.682c0,0.164-0.028,0.389-0.083,0.674l-0.626,3.125
		h0.723l-0.142,0.723h-2.173l0.723-3.639c0.02-0.094,0.029-0.182,0.029-0.264c0-0.201-0.079-0.303-0.239-0.303
		c-0.475,0-1.16,0.76-2.055,2.275l-0.383,1.93H104.156z"/>
	<path fill="#FFFFFF" d="M113.572,36.504l0.922-4.639h-0.722l0.146-0.723h2.046l-0.472,2.264h0.078
		c0.397-0.754,0.826-1.342,1.287-1.76s0.911-0.627,1.351-0.627c0.244,0,0.445,0.088,0.603,0.262
		c0.158,0.174,0.237,0.396,0.237,0.666c0,0.143-0.032,0.359-0.098,0.65l-0.182,0.805h0.078c0.385-0.742,0.813-1.326,1.284-1.748
		c0.471-0.424,0.93-0.635,1.377-0.635c0.247,0,0.451,0.096,0.61,0.289c0.16,0.191,0.24,0.436,0.24,0.732
		c0,0.158-0.024,0.359-0.073,0.6l-0.619,3.141h0.724l-0.146,0.723h-2.109l0.69-3.477c0.036-0.18,0.054-0.309,0.054-0.387
		c0-0.217-0.086-0.326-0.259-0.326c-0.399,0-1.06,0.725-1.979,2.178l-0.4,2.012h-1.387l0.69-3.477
		c0.036-0.18,0.054-0.309,0.054-0.387c0-0.217-0.088-0.326-0.263-0.326c-0.396,0-1.056,0.727-1.978,2.178l-0.403,2.012H113.572z"/>
	<path fill="#FFFFFF" d="M122.333,38.432c0.671-0.471,1.267-1.018,1.787-1.635l0.322-0.391c0-1.602-0.315-3.115-0.947-4.541h-0.42
		l0.146-0.723h1.67c0.433,1.105,0.698,2.357,0.796,3.754l0.684-0.83c0.71-0.842,1.064-1.502,1.064-1.977
		c0-0.326-0.159-0.643-0.479-0.947h1.621c0.107,0.186,0.161,0.355,0.161,0.512c0,0.287-0.096,0.592-0.288,0.914
		s-0.599,0.863-1.221,1.625l-1.514,1.846c-0.876,1.068-1.453,1.865-1.733,2.393H122.333z"/>
	<path fill="#FFFFFF" d="M79.377,59.504V57.77h1.734V43.895h-1.734V42.16h8.566c2.75,0,4.896,0.736,6.439,2.209
		s2.314,3.521,2.314,6.146c0,2.727-0.748,4.906-2.244,6.539s-3.494,2.449-5.994,2.449H79.377z M84.732,57.629h1.998
		c2.041,0,3.572-0.596,4.592-1.787s1.531-2.975,1.531-5.35c0-2.203-0.53-3.854-1.589-4.951c-1.059-1.098-2.648-1.646-4.767-1.646
		h-1.765V57.629z"/>
	<path fill="#FFFFFF" d="M104.144,46.637V57.77h1.734v1.734h-6.949V57.77h1.734v-9.398h-1.734v-1.734H104.144z M100.663,44.469V41
		h3.48v3.469H100.663z"/>
	<path fill="#FFFFFF" d="M114.515,49.074c0.633-0.91,1.316-1.594,2.051-2.049s1.523-0.682,2.367-0.682
		c0.938,0,1.684,0.227,2.238,0.682s0.914,1.139,1.078,2.049h0.211c0.632-0.91,1.316-1.594,2.054-2.049s1.526-0.682,2.369-0.682
		c1.131,0,1.978,0.307,2.539,0.92s0.843,1.537,0.843,2.771v7.734h1.734v1.734h-6.504V57.77h1.441v-6.941
		c0-0.67-0.125-1.174-0.374-1.51c-0.249-0.334-0.623-0.502-1.122-0.502c-0.483,0-0.98,0.16-1.49,0.48
		c-0.511,0.32-1.03,0.801-1.561,1.441v7.031h1.441v1.734h-6.211V57.77h1.441v-6.941c0-0.67-0.123-1.174-0.369-1.51
		c-0.246-0.334-0.619-0.502-1.119-0.502c-0.484,0-0.982,0.16-1.494,0.48s-1.033,0.801-1.564,1.441v7.031h1.441v1.734h-6.504V57.77
		h1.734v-9.398h-1.734v-1.734h5.063V49.074z"/>
	<path fill="#FFFFFF" d="M145.131,59c-1.203,0.531-2.602,0.797-4.195,0.797c-2.336,0-4.154-0.604-5.455-1.811
		s-1.951-2.896-1.951-5.068c0-1.953,0.576-3.537,1.729-4.752s2.654-1.822,4.506-1.822c1.789,0,3.131,0.549,4.025,1.646
		s1.342,2.744,1.342,4.939v0.504h-8.027c0.094,1.402,0.477,2.455,1.148,3.16s1.637,1.059,2.895,1.059
		c1.305,0,2.633-0.309,3.984-0.926V59z M137.162,51.699h4.57v-0.305c0-1.109-0.171-1.939-0.511-2.49
		c-0.341-0.551-0.853-0.826-1.533-0.826c-0.752,0-1.34,0.301-1.763,0.902S137.248,50.488,137.162,51.699z"/>
</g>
<g>
	<circle fill="#5D5E5E" cx="30.377" cy="30.229" r="30"/>
	<path fill="#FFFFFF" d="M30.377,3.189c0.313,0,0.625,0.006,0.935,0.016l0.065-1.935c-0.332-0.011-0.665-0.017-1-0.017V3.189z
		 M28.243,3.271c0.31-0.024,0.62-0.043,0.932-0.057l-0.083-1.934c-0.335,0.016-0.668,0.035-0.999,0.061L28.243,3.271z M25.466,3.633
		c0.305-0.056,0.612-0.107,0.922-0.152l-0.283-1.916c-0.331,0.049-0.66,0.104-0.987,0.164L25.466,3.633z M22.741,4.279
		c0.298-0.088,0.598-0.17,0.901-0.248l-0.48-1.875c-0.324,0.083-0.646,0.172-0.966,0.266L22.741,4.279z M20.099,5.206
		c0.287-0.118,0.577-0.231,0.87-0.339l-0.672-1.815c-0.313,0.117-0.624,0.237-0.934,0.364L20.099,5.206z M17.57,6.4
		c0.274-0.147,0.55-0.289,0.829-0.428l-0.857-1.735c-0.299,0.148-0.594,0.3-0.888,0.458L17.57,6.4z M15.177,7.851
		c0.257-0.175,0.518-0.346,0.781-0.511l-1.031-1.638c-0.283,0.177-0.562,0.36-0.837,0.546L15.177,7.851z M12.944,9.541
		c0.238-0.201,0.48-0.396,0.724-0.589l-1.193-1.523c-0.263,0.206-0.521,0.416-0.776,0.631L12.944,9.541z M10.896,11.451
		c0.217-0.223,0.438-0.444,0.66-0.66l-1.345-1.393c-0.238,0.232-0.475,0.467-0.707,0.708L10.896,11.451z M9.054,13.563
		c0.192-0.245,0.389-0.486,0.589-0.725l-1.479-1.247c-0.215,0.255-0.426,0.515-0.631,0.777L9.054,13.563z M7.438,15.855
		c0.166-0.265,0.337-0.525,0.512-0.782L6.35,13.985c-0.188,0.276-0.371,0.555-0.549,0.838L7.438,15.855z M6.067,18.301
		c0.139-0.28,0.281-0.557,0.429-0.832l-1.705-0.917c-0.158,0.294-0.311,0.592-0.46,0.891L6.067,18.301z M4.958,20.877
		c0.108-0.293,0.222-0.584,0.34-0.873l-1.79-0.734c-0.126,0.309-0.248,0.621-0.364,0.935L4.958,20.877z M4.124,23.55
		c0.077-0.303,0.16-0.602,0.247-0.9l-1.857-0.544c-0.094,0.32-0.182,0.641-0.266,0.966L4.124,23.55z M3.572,26.296
		c0.046-0.309,0.096-0.617,0.152-0.922L1.82,25.025c-0.06,0.328-0.114,0.656-0.163,0.987L3.572,26.296z M3.306,29.084
		c0.014-0.313,0.032-0.624,0.058-0.933l-1.93-0.15C1.408,28.333,1.388,28.666,1.372,29L3.306,29.084z M3.326,31.888
		c-0.018-0.309-0.031-0.621-0.038-0.934l-1.935,0.047c0.009,0.335,0.021,0.669,0.041,1L3.326,31.888z M3.633,34.671
		c-0.049-0.306-0.094-0.613-0.134-0.924l-1.92,0.244c0.042,0.333,0.09,0.664,0.144,0.99L3.633,34.671z M4.226,37.409
		c-0.08-0.301-0.157-0.603-0.229-0.905l-1.884,0.442c0.077,0.325,0.158,0.648,0.246,0.97L4.226,37.409z M5.1,40.069
		c-0.112-0.29-0.22-0.582-0.323-0.876l-1.827,0.636c0.109,0.314,0.225,0.628,0.345,0.938L5.1,40.069z M6.244,42.621
		c-0.142-0.277-0.278-0.556-0.411-0.837l-1.752,0.822c0.142,0.302,0.288,0.601,0.439,0.896L6.244,42.621z M7.646,45.042
		c-0.169-0.262-0.334-0.524-0.495-0.791L5.494,45.25c0.172,0.286,0.349,0.568,0.53,0.847L7.646,45.042z M9.292,47.307
		c-0.195-0.241-0.387-0.487-0.574-0.736l-1.546,1.164c0.2,0.267,0.405,0.529,0.615,0.788L9.292,47.307z M11.163,49.392
		c-0.22-0.222-0.435-0.445-0.647-0.673l-1.418,1.317c0.226,0.244,0.458,0.484,0.693,0.721L11.163,49.392z M13.239,51.275
		c-0.242-0.198-0.48-0.398-0.714-0.605l-1.275,1.456c0.25,0.22,0.505,0.436,0.764,0.646L13.239,51.275z M15.498,52.935
		c-0.261-0.171-0.518-0.347-0.772-0.527l-1.12,1.578c0.272,0.194,0.548,0.382,0.827,0.566L15.498,52.935z M17.916,54.353
		c-0.277-0.142-0.551-0.291-0.823-0.445l-0.95,1.687c0.29,0.165,0.584,0.323,0.882,0.478L17.916,54.353z M20.47,55.513
		c-0.292-0.114-0.579-0.232-0.866-0.357l-0.771,1.775c0.307,0.134,0.616,0.261,0.928,0.384L20.47,55.513z M23.128,56.402
		c-0.3-0.084-0.599-0.173-0.896-0.266l-0.581,1.846c0.318,0.102,0.638,0.195,0.961,0.284L23.128,56.402z M25.861,57.009
		c-0.308-0.053-0.613-0.11-0.917-0.172l-0.386,1.897c0.326,0.065,0.655,0.126,0.984,0.182L25.861,57.009z M28.645,57.326
		c-0.312-0.018-0.622-0.044-0.93-0.074l-0.189,1.928c0.331,0.032,0.665,0.057,0.998,0.077L28.645,57.326z M31.447,57.36
		c-0.311,0.013-0.622,0.019-0.935,0.021l0.01,1.936c0.334-0.002,0.668-0.011,0.999-0.022L31.447,57.36z M34.237,57.109
		c-0.308,0.044-0.616,0.082-0.927,0.114l0.206,1.925c0.333-0.035,0.665-0.077,0.993-0.124L34.237,57.109z M36.985,56.57
		c-0.302,0.078-0.605,0.146-0.911,0.211l0.406,1.893c0.326-0.07,0.651-0.145,0.976-0.226L36.985,56.57z M39.662,55.75
		c-0.292,0.107-0.587,0.208-0.884,0.305l0.6,1.84c0.318-0.104,0.633-0.212,0.946-0.326L39.662,55.75z M42.235,54.657
		c-0.279,0.137-0.559,0.266-0.844,0.393l0.789,1.769c0.303-0.135,0.606-0.275,0.905-0.422L42.235,54.657z M44.684,53.304
		c-0.265,0.163-0.53,0.324-0.801,0.479l0.967,1.676c0.289-0.167,0.576-0.337,0.857-0.515L44.684,53.304z M46.979,51.701
		c-0.245,0.19-0.494,0.378-0.746,0.56l1.134,1.569c0.27-0.196,0.536-0.395,0.8-0.6L46.979,51.701z M49.102,49.873
		c-0.226,0.216-0.454,0.427-0.687,0.633l1.291,1.444c0.249-0.221,0.492-0.448,0.732-0.677L49.102,49.873z M51.024,47.836
		c-0.202,0.235-0.407,0.47-0.618,0.7l1.43,1.305c0.226-0.247,0.447-0.498,0.664-0.751L51.024,47.836z M52.729,45.609
		c-0.176,0.258-0.357,0.511-0.542,0.762l1.556,1.149c0.199-0.268,0.391-0.54,0.58-0.817L52.729,45.609z M54.194,43.22
		c-0.149,0.274-0.302,0.545-0.46,0.813l1.667,0.982c0.17-0.287,0.334-0.577,0.495-0.87L54.194,43.22z M55.405,40.69
		c-0.12,0.287-0.245,0.574-0.374,0.856l1.758,0.806c0.141-0.305,0.274-0.609,0.403-0.92L55.405,40.69z M56.344,38.048
		c-0.088,0.299-0.182,0.596-0.281,0.892l1.834,0.617c0.107-0.315,0.208-0.635,0.302-0.954L56.344,38.048z M57.006,35.326
		c-0.059,0.308-0.122,0.612-0.19,0.915l1.89,0.424c0.073-0.324,0.141-0.652,0.202-0.98L57.006,35.326z M57.38,32.552
		c-0.025,0.311-0.057,0.621-0.092,0.929l1.922,0.227c0.04-0.331,0.073-0.663,0.1-0.996L57.38,32.552z M57.469,29.75
		c0.003,0.178,0.004,0.357,0.004,0.535c0,0.134-0.001,0.268-0.003,0.401l1.935,0.027c0.003-0.142,0.003-0.285,0.003-0.429
		c0-0.19-0.001-0.381-0.006-0.571L57.469,29.75z M57.273,26.956c0.038,0.308,0.067,0.618,0.097,0.929l1.928-0.17
		c-0.029-0.333-0.064-0.664-0.105-0.995L57.273,26.956z M56.787,24.198c0.07,0.302,0.135,0.607,0.193,0.914l1.901-0.368
		c-0.064-0.328-0.132-0.655-0.208-0.979L56.787,24.198z M56.022,21.504c0.1,0.294,0.193,0.59,0.284,0.889l1.854-0.563
		c-0.098-0.319-0.202-0.637-0.309-0.953L56.022,21.504z M54.979,18.91c0.132,0.281,0.255,0.566,0.375,0.853l1.784-0.752
		c-0.129-0.307-0.264-0.612-0.404-0.914L54.979,18.91z M53.672,16.436c0.161,0.267,0.313,0.536,0.464,0.81l1.695-0.933
		c-0.161-0.292-0.325-0.581-0.495-0.867L53.672,16.436z M52.117,14.109c0.188,0.249,0.369,0.501,0.546,0.757l1.591-1.103
		c-0.189-0.274-0.385-0.545-0.584-0.812L52.117,14.109z M50.333,11.952c0.209,0.229,0.416,0.462,0.621,0.698l1.468-1.26
		c-0.217-0.253-0.439-0.502-0.665-0.749L50.333,11.952z M48.332,9.989c0.234,0.207,0.463,0.417,0.688,0.631l1.333-1.405
		c-0.243-0.229-0.489-0.454-0.738-0.675L48.332,9.989z M46.14,8.243c0.255,0.182,0.504,0.367,0.75,0.557l1.181-1.533
		c-0.264-0.204-0.533-0.403-0.803-0.597L46.14,8.243z M43.779,6.729c0.272,0.154,0.539,0.313,0.806,0.477L45.6,5.559
		c-0.284-0.175-0.573-0.345-0.863-0.511L43.779,6.729z M41.274,5.468c0.287,0.126,0.568,0.257,0.85,0.392l0.84-1.744
		c-0.302-0.145-0.604-0.285-0.912-0.42L41.274,5.468z M38.651,4.475c0.296,0.095,0.593,0.195,0.886,0.3l0.654-1.822
		C39.878,2.84,39.56,2.733,39.24,2.63L38.651,4.475z M35.943,3.761c0.306,0.064,0.608,0.133,0.91,0.206l0.461-1.879
		c-0.323-0.079-0.649-0.153-0.977-0.221L35.943,3.761z M33.176,3.332c0.311,0.032,0.619,0.069,0.926,0.111l0.264-1.917
		c-0.329-0.045-0.66-0.086-0.993-0.12L33.176,3.332z"/>
	<path fill="#FFFFFF" d="M16.025,15.282l0.326-0.34l-0.454-0.437l-1.673,1.742l0.454,0.437l0.437-0.454l1.18,1.135
		c-0.078,0.176-0.181,0.328-0.305,0.46c-0.456,0.473-0.984,0.683-1.584,0.626c-0.601-0.056-1.199-0.368-1.791-0.938
		c-0.606-0.582-0.964-1.159-1.074-1.735c-0.109-0.575,0.041-1.077,0.453-1.506c0.152-0.159,0.328-0.3,0.524-0.423
		c0.196-0.123,0.418-0.228,0.662-0.314l0.489,0.399l0.495-0.515l-0.963-0.926c-0.302,0.183-0.59,0.387-0.867,0.612
		c-0.278,0.225-0.545,0.471-0.802,0.739c-0.726,0.754-1.079,1.538-1.062,2.351c0.017,0.813,0.404,1.582,1.157,2.306
		c0.735,0.706,1.517,1.055,2.349,1.048c0.832-0.006,1.592-0.367,2.28-1.083c0.387-0.403,0.81-0.982,1.271-1.739L16.025,15.282z"/>
	<polygon fill="#FFFFFF" points="21.728,12.763 21.139,13.103 21.481,13.696 19.624,14.766 18.496,12.81 19.635,12.154 
		19.845,12.519 20.391,12.204 19.656,10.93 19.11,11.244 19.32,11.609 18.182,12.265 17.134,10.449 18.818,9.478 19.132,10.023 
		19.723,9.683 19.093,8.593 15.136,10.874 15.45,11.42 15.996,11.105 18.511,15.467 17.966,15.781 18.281,16.327 22.41,13.945 	"/>
	<path fill="#FFFFFF" d="M24.183,12.134c-0.425-0.4-0.732-0.993-0.918-1.78c-0.187-0.787-0.179-1.454,0.022-2.003
		c0.201-0.549,0.561-0.885,1.079-1.007c0.52-0.124,0.993,0.016,1.419,0.416c0.427,0.4,0.732,0.993,0.919,1.781
		c0.186,0.783,0.178,1.45-0.023,2c-0.201,0.549-0.563,0.887-1.081,1.009C25.081,12.673,24.609,12.533,24.183,12.134z M27.792,11.768
		c0.415-0.705,0.504-1.554,0.269-2.55c-0.237-0.996-0.697-1.715-1.385-2.159c-0.686-0.443-1.504-0.551-2.456-0.327
		c-0.952,0.226-1.635,0.691-2.048,1.394c-0.413,0.704-0.501,1.553-0.266,2.549c0.236,0.996,0.697,1.716,1.382,2.159
		c0.685,0.444,1.503,0.554,2.455,0.328S27.378,12.472,27.792,11.768z"/>
	<path fill="#FFFFFF" d="M31.468,6.832l0.419,0.035c0.41,0.035,0.709,0.146,0.9,0.333c0.19,0.188,0.271,0.45,0.242,0.789
		c-0.039,0.449-0.185,0.776-0.443,0.981c-0.257,0.204-0.623,0.286-1.101,0.245l-0.221-0.018L31.468,6.832z M31.699,9.839
		l1.461,2.822l1.61,0.138l0.055-0.627l-0.42-0.035l-1.461-2.438c0.423-0.129,0.746-0.334,0.975-0.613
		c0.228-0.28,0.359-0.632,0.396-1.059c0.043-0.502-0.106-0.906-0.446-1.21c-0.343-0.303-0.851-0.484-1.525-0.542l-2.703-0.23
		l-0.053,0.627l0.627,0.053l-0.428,5.017l-0.627-0.053l-0.054,0.627l2.407,0.205l0.054-0.627l-0.526-0.045l0.173-2.051L31.699,9.839
		z"/>
	<path fill="#FFFFFF" d="M40.8,12.838l0.437,0.179l0.238-0.583l-2.234-0.916L39,12.102l0.583,0.238l-0.62,1.515
		c-0.193-0.009-0.373-0.047-0.54-0.116c-0.608-0.249-0.996-0.664-1.166-1.243c-0.17-0.579-0.098-1.25,0.213-2.011
		c0.317-0.776,0.724-1.321,1.217-1.635c0.495-0.314,1.017-0.359,1.567-0.133c0.204,0.083,0.401,0.194,0.586,0.333
		c0.187,0.138,0.366,0.305,0.537,0.5l-0.191,0.602l0.662,0.271l0.507-1.236c-0.282-0.213-0.577-0.406-0.888-0.581
		c-0.313-0.176-0.639-0.333-0.983-0.474c-0.968-0.396-1.826-0.437-2.576-0.122c-0.749,0.315-1.321,0.956-1.719,1.924
		c-0.387,0.941-0.423,1.799-0.111,2.569c0.313,0.772,0.928,1.346,1.848,1.722c0.516,0.211,1.21,0.392,2.083,0.541L40.8,12.838z"/>
	<polygon fill="#FFFFFF" points="46.035,12.289 46.398,11.775 44.297,10.288 43.934,10.801 44.448,11.165 41.535,15.274 
		41.022,14.909 40.658,15.422 42.759,16.91 43.12,16.397 42.61,16.033 45.519,11.924 	"/>
	<path fill="#FFFFFF" d="M48.686,15.706l-1.242,2.423l-1.321-1.508L48.686,15.706z M47.122,18.756L46.536,19.9l-0.416-0.475
		l-0.475,0.415l1.55,1.77l0.473-0.414l-0.245-0.28l2.83-5.492l-0.647-0.74l-5.818,2.077l-0.246-0.28l-0.473,0.415l1.124,1.283
		l0.473-0.415L44.25,17.29l1.207-0.432L47.122,18.756z"/>
	<path fill="#FFFFFF" d="M38.218,23.761h-0.419v0.419h1.714v-0.419h-0.42V22.36l1.185-1.956h0.244v-0.42h-1.09v0.42h0.346
		l-0.879,1.458l-0.891-1.458h0.348v-0.42h-1.57v0.42h0.249l1.184,1.956L38.218,23.761L38.218,23.761z M31.553,23.761v0.419h1.36
		v-0.419h-0.367v-2.695l1.119,2.66h0.416l1.137-2.631l0.005,2.665H34.87v0.42h1.542v-0.42h-0.42v-3.356h0.42v-0.42h-1.171
		l-1.196,2.77l-1.177-2.77h-1.315v0.42h0.419v3.357H31.553z M28.751,24.223v-3.819h0.42v-0.42h-1.415v0.42h0.42v2.577l-2.087-2.997
		h-1.018v0.42h0.42v3.357h-0.42v0.419h1.414v-0.419h-0.419v-2.517l2.085,2.978H28.751z M21.602,23.377
		c-0.215-0.325-0.322-0.757-0.322-1.296s0.107-0.97,0.322-1.296c0.216-0.325,0.5-0.487,0.854-0.487c0.356,0,0.642,0.163,0.857,0.487
		c0.215,0.326,0.322,0.757,0.322,1.296c0,0.537-0.107,0.968-0.322,1.294c-0.215,0.327-0.5,0.489-0.857,0.489
		C22.102,23.866,21.817,23.703,21.602,23.377z M24,23.696c0.377-0.393,0.565-0.931,0.565-1.613s-0.188-1.22-0.565-1.614
		c-0.377-0.393-0.891-0.59-1.543-0.59c-0.653,0-1.167,0.197-1.543,0.59c-0.376,0.394-0.564,0.931-0.564,1.614
		s0.188,1.219,0.564,1.613c0.376,0.394,0.89,0.589,1.543,0.589C23.109,24.285,23.623,24.088,24,23.696z"/>
	<path fill="#FFFFFF" d="M43.219,49.45h-0.756v0.76h-2.381v-2.511h1.46v0.469h0.699v-1.635h-0.699v0.468h-1.46v-2.329h2.159v0.7
		h0.756v-1.399h-5.074v0.699h0.699v5.596h-0.699v0.7h5.296V49.45z M29.034,50.266v0.7h2.268v-0.7h-0.609v-4.488l1.865,4.433h0.693
		l1.894-4.386l0.009,4.441h-0.585v0.7h2.565v-0.7h-0.699v-5.594h0.699v-0.7h-1.952l-1.991,4.617l-1.963-4.617h-2.193v0.7h0.7v5.594
		H29.034z M28.278,44.672v-0.7h-2.859v0.7h0.7v5.594h-0.7v0.7h2.859v-0.7h-0.7v-5.594H28.278z M19.754,44.672h0.711
		c0.855,0,1.496,0.221,1.923,0.663c0.427,0.444,0.641,1.109,0.641,1.997c0,0.956-0.206,1.676-0.617,2.157
		C22,49.97,21.382,50.21,20.559,50.21h-0.805V44.672z M21.256,50.966c1.008,0,1.813-0.328,2.417-0.987s0.905-1.538,0.905-2.637
		c0-1.059-0.311-1.885-0.933-2.479c-0.621-0.594-1.487-0.891-2.596-0.891h-3.455v0.7h0.699v5.594h-0.699v0.7H21.256z"/>
	<path fill="#FFFFFF" d="M26.215,38.515L26.215,38.515c-0.002,0,2.239-3.294,2.456-3.615c0.138-0.057,0.934-0.565,0.948-1.519
		c-0.342-0.564-0.834-1.106-1.566-1.118h-0.006c-0.331,0.014-0.662-0.147-0.927-0.483l-0.062-0.088l-1.825-3.332l0.22-0.319
		l2.232,3.425l0.262-0.384l-2.295-3.33l0.19-0.279l2.31,3.351l0.219-0.316l-2.312-3.352l0.215-0.306l2.311,3.347l0.258-0.373
		l-2.384-3.244l0.201-0.29l2.197,2.48l0.108,0.138c0.302,0.438,0.434,1.031,0.39,1.604c0.029,0.723,0.191,1.261,0.402,1.671
		c4.096-5.811,5.642-5.189,5.642-5.189l0.121,0.183c0,0-2.754,4.003-4.457,6.478c0.598,0.864,3.478,5.038,3.478,5.038v0.001
		l0.009,0.009c0.206,0.299,0.204,0.781,0,1.081c-0.206,0.296-0.541,0.296-0.743,0L33.8,39.769l-0.002,0.002
		c0,0-2.882-4.177-3.477-5.039c-0.311,0.452-0.518,0.756-0.561,0.814c-0.25,0.369-2.793,4.05-2.793,4.05h-0.002l-0.006,0.011
		c-0.205,0.3-0.543,0.3-0.747,0c-0.208-0.296-0.208-0.782,0-1.083L26.215,38.515z"/>
	<circle fill="#FFFFFF" cx="41.676" cy="33.147" r="1.286"/>
	<circle fill="#FFFFFF" cx="20.069" cy="33.147" r="1.286"/>
</g>
</svg>
