<?xml version="1.0" encoding="utf-8"?>
<!-- Generator: Adobe Illustrator 16.0.0, SVG Export Plug-In . SVG Version: 6.00 Build 0)  -->
<svg version="1.2" baseProfile="tiny" id="Layer_1" xmlns="http://www.w3.org/2000/svg" xmlns:xlink="http://www.w3.org/1999/xlink"
	 x="0px" y="0px" width="249.875px" height="40px" viewBox="0 0 249.875 40" xml:space="preserve">
<g>
	<path fill="#FFFFFF" d="M59.179,28.741c-2.383,0.531-4.344,0.797-5.883,0.797c-2.734,0-4.902-0.82-6.504-2.461
		s-2.402-3.863-2.402-6.668c0-2.883,0.791-5.117,2.373-6.703s3.814-2.379,6.697-2.379c1.023,0,2.023,0.061,3,0.182
		s1.934,0.307,2.871,0.557v3.68h-1.969l-0.141-1.734c-0.64-0.32-1.27-0.559-1.89-0.715c-0.621-0.156-1.235-0.234-1.843-0.234
		c-1.639,0-2.924,0.658-3.856,1.975c-0.932,1.316-1.398,3.131-1.398,5.443c0,2.266,0.519,4.049,1.556,5.35s2.461,1.951,4.271,1.951
		c0.499,0,0.999-0.09,1.498-0.27v-4.512h-1.734v-1.734h6.656v1.734h-1.301V28.741z"/>
	<path fill="#FFFFFF" d="M74.293,28.601c-1.203,0.531-2.602,0.797-4.195,0.797c-2.336,0-4.154-0.604-5.455-1.811
		s-1.951-2.896-1.951-5.068c0-1.953,0.576-3.537,1.729-4.752s2.654-1.822,4.506-1.822c1.789,0,3.131,0.549,4.025,1.646
		s1.342,2.744,1.342,4.939v0.504h-8.027c0.094,1.402,0.477,2.456,1.148,3.161s1.637,1.058,2.895,1.058
		c1.305,0,2.633-0.309,3.984-0.926V28.601z M66.325,21.3h4.57v-0.305c0-1.109-0.17-1.939-0.511-2.49
		c-0.34-0.551-0.852-0.826-1.533-0.826c-0.752,0-1.339,0.301-1.762,0.902S66.411,20.089,66.325,21.3z"/>
	<path fill="#FFFFFF" d="M83.631,29.397c-2.078,0-3.713-0.6-4.904-1.799s-1.787-2.842-1.787-4.928s0.596-3.729,1.787-4.928
		s2.826-1.799,4.904-1.799c2.07,0,3.701,0.6,4.893,1.799s1.787,2.842,1.787,4.928s-0.596,3.729-1.787,4.928
		S85.702,29.397,83.631,29.397z M83.637,27.663c0.889,0,1.61-0.461,2.164-1.383s0.831-2.125,0.831-3.609s-0.277-2.688-0.831-3.609
		s-1.275-1.383-2.164-1.383c-0.897,0-1.62,0.461-2.169,1.383c-0.55,0.922-0.825,2.125-0.825,3.609s0.275,2.688,0.825,3.609
		C82.017,27.202,82.74,27.663,83.637,27.663z"/>
	<path fill="#FFFFFF" d="M97.445,20.327v7.043h1.734v1.734H92.23V27.37h1.734v-9.398H92.23v-1.734h5.215v2.426
		c0.99-1.813,2.354-2.719,4.092-2.719c0.281,0,0.554,0.051,0.818,0.152v3.75h-2.027v-1.184
		C99.231,18.663,98.27,19.218,97.445,20.327z"/>
	<path fill="#FFFFFF" d="M106.701,28.647c-0.891-0.477-1.336-1.039-1.336-1.688c0-0.844,0.816-1.648,2.449-2.414
		c-0.961-0.359-1.682-0.879-2.162-1.559s-0.721-1.52-0.721-2.52c0-1.375,0.473-2.473,1.418-3.293s2.215-1.23,3.809-1.23
		c0.5,0,0.971,0.039,1.412,0.117s0.857,0.195,1.248,0.352l4.793-0.387l-0.867,2.156l-2.156-0.422
		c0.578,0.845,0.867,1.722,0.867,2.629c0,1.346-0.477,2.444-1.429,3.292s-2.185,1.273-3.699,1.273c-0.296,0-0.573-0.023-0.831-0.07
		c-0.73,0.297-1.096,0.684-1.096,1.16c0,0.445,0.499,0.668,1.496,0.668h1.963c1.823,0,3.12,0.23,3.892,0.691
		c0.764,0.469,1.146,1.254,1.146,2.355c0,1.281-0.614,2.313-1.844,3.093c-1.229,0.781-2.852,1.172-4.865,1.172
		c-1.818,0-3.306-0.258-4.461-0.773s-1.732-1.175-1.732-1.979c0-0.586,0.226-1.098,0.677-1.535S105.799,28.937,106.701,28.647z
		 M108.283,29.104c-0.313,0.242-0.549,0.49-0.709,0.744s-0.24,0.518-0.24,0.791c0,0.547,0.255,0.959,0.765,1.236
		s1.271,0.415,2.283,0.415c0.941,0,1.737-0.2,2.388-0.603c0.649-0.402,0.975-0.893,0.975-1.471c0-0.438-0.177-0.732-0.531-0.885
		c-0.354-0.152-1.04-0.229-2.06-0.229H108.283z M108.119,20.515c0,0.859,0.193,1.561,0.58,2.104s0.889,0.814,1.506,0.814
		c0.625,0,1.125-0.275,1.5-0.826s0.563-1.283,0.563-2.197c0-0.984-0.172-1.721-0.516-2.209s-0.859-0.732-1.547-0.732
		c-0.695,0-1.217,0.254-1.564,0.762S108.119,19.499,108.119,20.515z"/>
	<path fill="#FFFFFF" d="M124.312,16.237V27.37h1.734v1.734h-6.949V27.37h1.734v-9.398h-1.734v-1.734H124.312z M120.831,14.069
		v-3.469h3.48v3.469H120.831z"/>
	<path fill="#FFFFFF" d="M135.349,27.616c-0.616,0.594-1.246,1.039-1.89,1.336s-1.301,0.445-1.972,0.445
		c-1.146,0-2.093-0.354-2.838-1.061s-1.117-1.6-1.117-2.678c0-1.469,0.542-2.545,1.626-3.229c1.085-0.684,2.793-1.025,5.125-1.025
		h0.585v-1.523c0-1.469-0.715-2.203-2.145-2.203c-0.777,0-1.5,0.258-2.168,0.773l-0.152,1.113h-1.887v-2.543
		c1.563-0.719,3.152-1.078,4.77-1.078c3.375,0,5.063,1.301,5.063,3.902v5.648c0,1.258,0.332,1.887,0.996,1.887
		c0.125,0,0.273-0.02,0.445-0.059l0.152,1.781c-0.604,0.195-1.194,0.293-1.774,0.293C136.899,29.397,135.96,28.804,135.349,27.616z
		 M134.868,26.269v-3.305h-0.467c-1.153,0-2.02,0.191-2.601,0.574c-0.58,0.383-0.87,0.961-0.87,1.734
		c0,0.555,0.171,1.02,0.514,1.395s0.771,0.563,1.286,0.563c0.335,0,0.681-0.08,1.039-0.24S134.494,26.589,134.868,26.269z"/>
	<path fill="#FFFFFF" d="M170.475,29.104V27.37h1.734V13.495h-1.734v-1.734h8.566c2.75,0,4.896,0.736,6.439,2.209
		s2.314,3.521,2.314,6.146c0,2.727-0.748,4.906-2.244,6.539s-3.494,2.449-5.994,2.449H170.475z M175.83,27.229h1.998
		c2.041,0,3.571-0.596,4.592-1.787s1.531-2.975,1.531-5.35c0-2.203-0.529-3.854-1.589-4.951s-2.649-1.646-4.768-1.646h-1.765V27.229
		z"/>
	<path fill="#FFFFFF" d="M195.241,16.237V27.37h1.734v1.734h-6.949V27.37h1.734v-9.398h-1.734v-1.734H195.241z M191.761,14.069
		v-3.469h3.48v3.469H191.761z"/>
	<path fill="#FFFFFF" d="M205.612,18.675c0.633-0.91,1.316-1.593,2.051-2.048s1.523-0.683,2.367-0.683
		c0.938,0,1.684,0.228,2.238,0.683s0.914,1.138,1.078,2.048h0.211c0.632-0.91,1.316-1.593,2.054-2.048s1.526-0.683,2.369-0.683
		c1.131,0,1.978,0.307,2.539,0.92s0.843,1.537,0.843,2.771v7.734h1.734v1.734h-6.504V27.37h1.441v-6.94
		c0-0.671-0.125-1.174-0.374-1.51s-0.623-0.503-1.122-0.503c-0.483,0-0.98,0.16-1.49,0.48c-0.511,0.32-1.03,0.801-1.561,1.441v7.031
		h1.441v1.734h-6.211V27.37h1.441v-6.94c0-0.671-0.123-1.174-0.369-1.51s-0.619-0.503-1.119-0.503c-0.484,0-0.982,0.16-1.494,0.48
		s-1.033,0.801-1.564,1.441v7.031h1.441v1.734h-6.504V27.37h1.734v-9.398h-1.734v-1.734h5.063V18.675z"/>
	<path fill="#FFFFFF" d="M236.229,28.601c-1.203,0.531-2.602,0.797-4.195,0.797c-2.336,0-4.154-0.604-5.455-1.811
		s-1.951-2.896-1.951-5.068c0-1.953,0.576-3.537,1.729-4.752s2.654-1.822,4.506-1.822c1.789,0,3.131,0.549,4.025,1.646
		s1.342,2.744,1.342,4.939v0.504h-8.027c0.094,1.402,0.477,2.456,1.148,3.161s1.637,1.058,2.895,1.058
		c1.305,0,2.633-0.309,3.984-0.926V28.601z M228.26,21.3h4.57v-0.305c0-1.109-0.171-1.939-0.511-2.49
		c-0.341-0.551-0.853-0.826-1.533-0.826c-0.752,0-1.34,0.301-1.763,0.902S228.346,20.089,228.26,21.3z"/>
</g>
<g>
	<circle fill="#5D5E5E" cx="20" cy="20.267" r="20"/>
	<path fill="#FFFFFF" d="M20,2.24c0.208,0,0.417,0.004,0.623,0.011l0.043-1.29C20.445,0.954,20.223,0.95,20,0.95V2.24z
		 M18.578,2.295c0.206-0.016,0.413-0.029,0.621-0.038l-0.056-1.289c-0.223,0.01-0.445,0.023-0.666,0.041L18.578,2.295z
		 M16.726,2.536c0.203-0.037,0.408-0.071,0.614-0.102l-0.188-1.277c-0.221,0.033-0.44,0.069-0.658,0.109L16.726,2.536z M14.91,2.967
		c0.198-0.059,0.398-0.113,0.601-0.165l-0.32-1.25c-0.216,0.056-0.431,0.115-0.644,0.177L14.91,2.967z M13.148,3.585
		c0.191-0.079,0.385-0.154,0.58-0.226l-0.448-1.21c-0.209,0.078-0.416,0.158-0.622,0.243L13.148,3.585z M11.462,4.381
		c0.183-0.098,0.367-0.193,0.552-0.285l-0.571-1.157c-0.199,0.099-0.396,0.2-0.592,0.305L11.462,4.381z M9.867,5.348
		c0.171-0.117,0.345-0.23,0.521-0.341L9.7,3.916C9.511,4.034,9.326,4.155,9.142,4.28L9.867,5.348z M8.378,6.475
		c0.159-0.134,0.32-0.264,0.483-0.393L8.065,5.067C7.89,5.204,7.717,5.344,7.547,5.487L8.378,6.475z M7.012,7.749
		c0.145-0.149,0.292-0.296,0.44-0.44L6.556,6.38C6.397,6.535,6.24,6.692,6.085,6.852L7.012,7.749z M5.785,9.157
		c0.128-0.163,0.259-0.324,0.393-0.483L5.191,7.842C5.047,8.012,4.907,8.185,4.77,8.36L5.785,9.157z M4.708,10.685
		c0.111-0.176,0.225-0.35,0.341-0.521L3.982,9.438c-0.125,0.184-0.248,0.37-0.366,0.559L4.708,10.685z M3.793,12.315
		c0.093-0.187,0.188-0.372,0.286-0.555l-1.137-0.611c-0.105,0.196-0.208,0.395-0.307,0.594L3.793,12.315z M3.054,14.032
		c0.072-0.195,0.147-0.389,0.227-0.582l-1.193-0.49c-0.084,0.206-0.166,0.414-0.243,0.624L3.054,14.032z M2.498,15.814
		c0.051-0.202,0.106-0.401,0.165-0.6l-1.238-0.363c-0.063,0.213-0.121,0.427-0.177,0.644L2.498,15.814z M2.13,17.645
		c0.031-0.206,0.064-0.411,0.102-0.615l-1.269-0.232c-0.04,0.219-0.076,0.438-0.109,0.658L2.13,17.645z M1.953,19.504
		c0.009-0.208,0.021-0.416,0.038-0.622l-1.286-0.1c-0.017,0.221-0.031,0.443-0.041,0.666L1.953,19.504z M1.966,21.373
		c-0.012-0.206-0.021-0.414-0.025-0.623l-1.29,0.032c0.006,0.223,0.015,0.446,0.027,0.667L1.966,21.373z M2.171,23.229
		c-0.033-0.204-0.063-0.409-0.089-0.616l-1.28,0.163c0.028,0.222,0.06,0.442,0.096,0.66L2.171,23.229z M2.566,25.054
		c-0.054-0.2-0.105-0.401-0.153-0.604l-1.256,0.295c0.051,0.217,0.105,0.433,0.164,0.646L2.566,25.054z M3.148,26.827
		c-0.075-0.193-0.146-0.388-0.215-0.584l-1.218,0.424c0.073,0.21,0.15,0.419,0.23,0.626L3.148,26.827z M3.912,28.528
		c-0.095-0.185-0.186-0.37-0.274-0.558l-1.168,0.548c0.095,0.201,0.192,0.4,0.293,0.598L3.912,28.528z M4.846,30.143
		c-0.113-0.175-0.223-0.35-0.33-0.527l-1.104,0.666c0.115,0.19,0.232,0.379,0.354,0.564L4.846,30.143z M5.943,31.652
		c-0.13-0.161-0.258-0.325-0.383-0.491L4.53,31.938c0.134,0.178,0.271,0.353,0.41,0.525L5.943,31.652z M7.19,33.042
		c-0.146-0.147-0.29-0.297-0.431-0.448l-0.946,0.878c0.151,0.163,0.305,0.323,0.462,0.48L7.19,33.042z M8.575,34.298
		c-0.161-0.132-0.32-0.266-0.476-0.403l-0.851,0.971c0.167,0.146,0.337,0.29,0.509,0.431L8.575,34.298z M10.081,35.404
		c-0.174-0.114-0.345-0.231-0.515-0.352l-0.747,1.052c0.182,0.13,0.366,0.255,0.551,0.378L10.081,35.404z M11.692,36.35
		c-0.185-0.095-0.368-0.194-0.548-0.297l-0.634,1.124c0.193,0.11,0.39,0.216,0.588,0.318L11.692,36.35z M13.395,37.123
		c-0.194-0.076-0.386-0.155-0.577-0.238l-0.514,1.184c0.204,0.089,0.411,0.174,0.619,0.256L13.395,37.123z M15.167,37.716
		c-0.2-0.056-0.399-0.115-0.597-0.177l-0.387,1.23c0.212,0.067,0.425,0.13,0.641,0.189L15.167,37.716z M16.99,38.12
		c-0.205-0.035-0.409-0.073-0.612-0.114l-0.257,1.265c0.217,0.044,0.437,0.084,0.656,0.121L16.99,38.12z M18.845,38.332
		c-0.208-0.012-0.415-0.029-0.62-0.05l-0.126,1.285c0.221,0.021,0.443,0.038,0.665,0.052L18.845,38.332z M20.713,38.354
		c-0.207,0.009-0.415,0.013-0.623,0.015l0.007,1.29c0.223-0.001,0.445-0.007,0.666-0.015L20.713,38.354z M22.574,38.188
		c-0.205,0.029-0.411,0.055-0.618,0.076l0.138,1.283c0.222-0.023,0.443-0.052,0.662-0.083L22.574,38.188z M24.406,37.828
		c-0.201,0.052-0.404,0.098-0.607,0.141l0.271,1.262c0.218-0.047,0.435-0.097,0.65-0.15L24.406,37.828z M26.19,37.281
		c-0.194,0.071-0.391,0.139-0.589,0.203l0.4,1.227c0.212-0.069,0.422-0.142,0.631-0.218L26.19,37.281z M27.905,36.553
		c-0.186,0.091-0.373,0.177-0.563,0.262l0.526,1.179c0.202-0.09,0.404-0.184,0.604-0.281L27.905,36.553z M29.538,35.65
		c-0.177,0.108-0.354,0.216-0.534,0.319l0.645,1.117c0.192-0.111,0.384-0.225,0.571-0.343L29.538,35.65z M31.068,34.582
		c-0.163,0.127-0.329,0.252-0.497,0.373l0.756,1.046c0.18-0.131,0.357-0.263,0.533-0.399L31.068,34.582z M32.483,33.363
		c-0.15,0.144-0.303,0.284-0.458,0.422l0.86,0.963c0.166-0.147,0.328-0.299,0.488-0.451L32.483,33.363z M33.765,32.005
		c-0.135,0.157-0.271,0.313-0.412,0.467l0.953,0.87c0.15-0.165,0.298-0.332,0.442-0.501L33.765,32.005z M34.901,30.521
		c-0.117,0.172-0.238,0.341-0.361,0.508l1.037,0.767c0.133-0.179,0.261-0.36,0.387-0.545L34.901,30.521z M35.878,28.928
		c-0.1,0.183-0.201,0.363-0.307,0.542l1.111,0.655c0.113-0.191,0.223-0.385,0.33-0.58L35.878,28.928z M36.686,27.241
		c-0.08,0.191-0.163,0.383-0.249,0.571l1.172,0.537c0.094-0.203,0.183-0.406,0.269-0.613L36.686,27.241z M37.312,25.479
		c-0.059,0.199-0.121,0.397-0.188,0.595l1.223,0.411c0.071-0.21,0.139-0.423,0.201-0.636L37.312,25.479z M37.753,23.665
		c-0.039,0.205-0.081,0.408-0.127,0.61l1.26,0.282c0.049-0.216,0.094-0.435,0.135-0.653L37.753,23.665z M38.002,21.815
		c-0.017,0.207-0.038,0.414-0.062,0.619l1.281,0.151c0.026-0.221,0.049-0.442,0.066-0.664L38.002,21.815z M38.062,19.948
		c0.002,0.119,0.003,0.238,0.003,0.356c0,0.089-0.001,0.178-0.002,0.268l1.29,0.018c0.002-0.094,0.002-0.19,0.002-0.286
		c0-0.127-0.001-0.254-0.004-0.381L38.062,19.948z M37.931,18.085c0.025,0.206,0.045,0.412,0.064,0.62l1.285-0.113
		c-0.02-0.222-0.043-0.443-0.07-0.664L37.931,18.085z M37.606,16.247c0.047,0.201,0.09,0.405,0.129,0.609l1.268-0.245
		c-0.043-0.219-0.088-0.437-0.139-0.652L37.606,16.247z M37.097,14.451c0.066,0.196,0.129,0.394,0.189,0.593l1.236-0.375
		c-0.065-0.213-0.135-0.425-0.206-0.635L37.097,14.451z M36.401,12.721c0.088,0.188,0.17,0.377,0.25,0.568l1.189-0.501
		c-0.086-0.205-0.176-0.408-0.27-0.609L36.401,12.721z M35.53,11.072c0.107,0.178,0.209,0.357,0.31,0.54l1.13-0.622
		c-0.107-0.194-0.217-0.387-0.33-0.578L35.53,11.072z M34.493,9.521c0.125,0.166,0.246,0.334,0.364,0.505l1.061-0.735
		c-0.126-0.183-0.257-0.363-0.39-0.541L34.493,9.521z M33.304,8.083c0.14,0.152,0.277,0.308,0.414,0.465l0.979-0.84
		c-0.145-0.168-0.293-0.335-0.443-0.499L33.304,8.083z M31.97,6.774c0.156,0.138,0.309,0.278,0.459,0.421l0.889-0.937
		c-0.162-0.153-0.326-0.303-0.492-0.45L31.97,6.774z M30.509,5.609c0.17,0.121,0.336,0.245,0.5,0.372l0.787-1.022
		C31.62,4.823,31.44,4.69,31.261,4.561L30.509,5.609z M28.935,4.601c0.182,0.103,0.359,0.209,0.537,0.318l0.677-1.098
		c-0.189-0.117-0.382-0.23-0.575-0.341L28.935,4.601z M27.265,3.76c0.191,0.084,0.379,0.171,0.566,0.261l0.56-1.163
		c-0.201-0.097-0.402-0.19-0.608-0.28L27.265,3.76z M25.516,3.098c0.198,0.063,0.396,0.13,0.591,0.2l0.436-1.214
		c-0.209-0.076-0.421-0.147-0.634-0.216L25.516,3.098z M23.711,2.622c0.204,0.042,0.406,0.088,0.607,0.137l0.307-1.253
		c-0.215-0.053-0.433-0.102-0.651-0.147L23.711,2.622z M21.866,2.335c0.207,0.021,0.413,0.046,0.618,0.074l0.176-1.278
		c-0.219-0.03-0.44-0.057-0.662-0.08L21.866,2.335z"/>
	<path fill="#FFFFFF" d="M10.432,10.302l0.218-0.227l-0.303-0.291l-1.115,1.161l0.303,0.291l0.291-0.302l0.787,0.756
		c-0.052,0.117-0.121,0.219-0.204,0.307c-0.304,0.315-0.656,0.455-1.056,0.417c-0.401-0.037-0.799-0.246-1.194-0.625
		c-0.404-0.388-0.643-0.773-0.716-1.157C7.37,10.25,7.47,9.915,7.745,9.629c0.102-0.106,0.219-0.2,0.35-0.282
		c0.131-0.082,0.279-0.152,0.441-0.209l0.326,0.266l0.33-0.343L8.55,8.443C8.349,8.565,8.157,8.701,7.972,8.851
		C7.787,9,7.608,9.165,7.438,9.343c-0.484,0.502-0.719,1.025-0.708,1.567c0.011,0.542,0.269,1.054,0.771,1.537
		c0.49,0.471,1.011,0.703,1.566,0.699c0.555-0.004,1.062-0.245,1.52-0.722c0.258-0.269,0.54-0.655,0.847-1.159L10.432,10.302z"/>
	<polygon fill="#FFFFFF" points="14.234,8.623 13.841,8.85 14.069,9.245 12.832,9.958 12.08,8.654 12.838,8.217 12.979,8.46 
		13.342,8.25 12.853,7.401 12.489,7.61 12.629,7.854 11.87,8.291 11.171,7.081 12.294,6.433 12.503,6.796 12.897,6.57 12.478,5.843 
		9.839,7.364 10.049,7.728 10.413,7.518 12.089,10.426 11.726,10.635 11.936,10.999 14.689,9.411 	"/>
	<path fill="#FFFFFF" d="M15.871,8.204c-0.284-0.267-0.488-0.662-0.612-1.187s-0.119-0.969,0.015-1.335
		c0.134-0.366,0.374-0.59,0.719-0.671c0.347-0.083,0.662,0.011,0.946,0.277s0.488,0.662,0.612,1.187
		c0.124,0.522,0.119,0.967-0.016,1.333c-0.134,0.366-0.375,0.591-0.721,0.673C16.469,8.563,16.155,8.47,15.871,8.204z M18.277,7.959
		c0.276-0.47,0.336-1.036,0.179-1.7c-0.158-0.664-0.465-1.144-0.923-1.439c-0.457-0.295-1.003-0.368-1.638-0.218
		c-0.635,0.15-1.09,0.46-1.365,0.929c-0.275,0.469-0.334,1.036-0.177,1.7s0.464,1.144,0.921,1.439
		c0.457,0.296,1.002,0.369,1.637,0.219S18.001,8.429,18.277,7.959z"/>
	<path fill="#FFFFFF" d="M20.728,4.669l0.28,0.023c0.273,0.023,0.473,0.098,0.6,0.222c0.127,0.125,0.18,0.3,0.161,0.526
		c-0.026,0.299-0.124,0.518-0.295,0.654c-0.171,0.136-0.415,0.19-0.733,0.164l-0.147-0.012L20.728,4.669z M20.881,6.674l0.974,1.881
		l1.074,0.092l0.036-0.418l-0.28-0.023l-0.974-1.625c0.282-0.086,0.498-0.223,0.65-0.409c0.152-0.187,0.24-0.421,0.264-0.706
		c0.029-0.335-0.071-0.604-0.297-0.807c-0.229-0.202-0.567-0.323-1.017-0.361l-1.802-0.154l-0.035,0.418l0.418,0.036l-0.285,3.345
		l-0.418-0.036l-0.036,0.418l1.604,0.137l0.036-0.418l-0.351-0.03l0.116-1.367L20.881,6.674z"/>
	<path fill="#FFFFFF" d="M26.949,8.673l0.291,0.12l0.159-0.389l-1.49-0.61l-0.16,0.389l0.388,0.159l-0.413,1.01
		c-0.129-0.006-0.249-0.032-0.36-0.077c-0.405-0.166-0.664-0.442-0.777-0.829c-0.114-0.386-0.065-0.833,0.142-1.34
		c0.212-0.518,0.483-0.881,0.812-1.09c0.33-0.209,0.678-0.239,1.045-0.089c0.136,0.056,0.267,0.129,0.391,0.222
		c0.124,0.092,0.244,0.203,0.358,0.333l-0.127,0.401l0.441,0.181l0.338-0.824c-0.188-0.142-0.384-0.271-0.592-0.387
		c-0.208-0.117-0.426-0.222-0.655-0.316c-0.646-0.264-1.218-0.292-1.718-0.082c-0.499,0.21-0.881,0.637-1.146,1.283
		C23.617,7.364,23.592,7.936,23.8,8.45c0.208,0.515,0.619,0.897,1.231,1.148c0.344,0.141,0.807,0.261,1.389,0.361L26.949,8.673z"/>
	<polygon fill="#FFFFFF" points="30.438,8.307 30.681,7.964 29.28,6.973 29.038,7.315 29.381,7.558 27.439,10.297 27.097,10.054 
		26.854,10.396 28.255,11.388 28.495,11.046 28.155,10.803 30.095,8.064 	"/>
	<path fill="#FFFFFF" d="M32.206,10.585L31.378,12.2l-0.881-1.005L32.206,10.585z M31.163,12.619l-0.391,0.763l-0.277-0.317
		l-0.316,0.276l1.033,1.18l0.315-0.276l-0.163-0.187l1.887-3.661l-0.432-0.493l-3.879,1.385l-0.164-0.187l-0.315,0.276l0.749,0.855
		l0.315-0.276l-0.276-0.316l0.805-0.288L31.163,12.619z"/>
	<path fill="#FFFFFF" d="M25.228,15.955h-0.28v0.28h1.143v-0.28h-0.28v-0.934l0.79-1.304h0.163v-0.28h-0.727v0.28h0.23l-0.586,0.972
		l-0.594-0.972h0.232v-0.28h-1.047v0.28h0.166l0.789,1.304L25.228,15.955L25.228,15.955z M20.784,15.955v0.28h0.907v-0.28h-0.245
		v-1.796l0.746,1.773h0.277l0.758-1.754l0.003,1.777h-0.235v0.28h1.028v-0.28h-0.28v-2.238h0.28v-0.28h-0.781l-0.797,1.846
		l-0.785-1.846h-0.877v0.28h0.28v2.238H20.784z M18.916,16.263v-2.546h0.28v-0.28h-0.943v0.28h0.28v1.718l-1.392-1.998h-0.678v0.28
		h0.28v2.238h-0.28v0.28h0.943v-0.28h-0.28v-1.678l1.39,1.985H18.916z M14.15,15.699c-0.144-0.217-0.215-0.504-0.215-0.864
		s0.071-0.647,0.215-0.864c0.144-0.217,0.333-0.325,0.569-0.325c0.238,0,0.428,0.108,0.572,0.325
		c0.143,0.217,0.215,0.505,0.215,0.864c0,0.358-0.072,0.646-0.215,0.863c-0.144,0.218-0.333,0.326-0.572,0.326
		C14.483,16.025,14.293,15.917,14.15,15.699z M15.749,15.912c0.251-0.262,0.377-0.621,0.377-1.076S16,14.022,15.749,13.76
		c-0.251-0.262-0.594-0.394-1.029-0.394c-0.436,0-0.778,0.131-1.029,0.394c-0.25,0.262-0.376,0.621-0.376,1.076
		s0.125,0.813,0.376,1.076c0.25,0.262,0.593,0.393,1.029,0.393C15.155,16.304,15.498,16.173,15.749,15.912z"/>
	<path fill="#FFFFFF" d="M28.562,33.081h-0.504v0.507H26.47v-1.674h0.973v0.313h0.466v-1.09h-0.466v0.312H26.47v-1.553h1.439v0.467
		h0.504V29.43h-3.382v0.466h0.466v3.73h-0.466v0.467h3.531V33.081z M19.105,33.625v0.467h1.512v-0.467H20.21v-2.992l1.243,2.955
		h0.462l1.262-2.924l0.006,2.961h-0.39v0.467h1.71v-0.467h-0.466v-3.729h0.466v-0.467h-1.301l-1.328,3.078l-1.309-3.078h-1.462
		v0.467h0.466v3.729H19.105z M18.601,29.896v-0.467h-1.906v0.467h0.467v3.729h-0.467v0.467h1.906v-0.467h-0.467v-3.729H18.601z
		 M12.918,29.896h0.474c0.57,0,0.997,0.147,1.282,0.442c0.285,0.296,0.427,0.739,0.427,1.331c0,0.638-0.137,1.117-0.412,1.438
		c-0.274,0.32-0.686,0.48-1.235,0.48h-0.537V29.896z M13.919,34.092c0.672,0,1.209-0.219,1.611-0.658s0.604-1.025,0.604-1.758
		c0-0.706-0.207-1.257-0.622-1.653c-0.414-0.396-0.991-0.594-1.73-0.594h-2.303v0.467h0.466v3.729h-0.466v0.467H13.919z"/>
	<path fill="#FFFFFF" d="M17.225,25.791L17.225,25.791c-0.001,0,1.493-2.196,1.638-2.41c0.092-0.038,0.623-0.377,0.632-1.013
		c-0.228-0.376-0.556-0.737-1.044-0.745h-0.004c-0.221,0.009-0.441-0.099-0.618-0.322l-0.041-0.059l-1.217-2.222l0.146-0.212
		l1.488,2.284l0.175-0.256l-1.53-2.22l0.127-0.186l1.54,2.234l0.146-0.211l-1.541-2.234l0.144-0.204l1.54,2.231l0.172-0.249
		l-1.589-2.163l0.134-0.193l1.465,1.653l0.072,0.092c0.201,0.292,0.289,0.688,0.26,1.069c0.02,0.482,0.127,0.841,0.268,1.114
		c2.73-3.874,3.761-3.459,3.761-3.459l0.081,0.122c0,0-1.836,2.669-2.972,4.319c0.398,0.576,2.318,3.358,2.318,3.358v0.001
		l0.006,0.006c0.138,0.199,0.136,0.521,0,0.721c-0.137,0.197-0.36,0.197-0.495,0l-0.005-0.01l-0.001,0.001
		c0,0-1.921-2.784-2.318-3.359c-0.207,0.302-0.345,0.504-0.374,0.543c-0.167,0.246-1.862,2.7-1.862,2.7h-0.001l-0.004,0.007
		c-0.137,0.2-0.362,0.2-0.498,0c-0.138-0.197-0.138-0.521,0-0.722L17.225,25.791z"/>
	<circle fill="#FFFFFF" cx="27.533" cy="22.213" r="0.857"/>
	<circle fill="#FFFFFF" cx="13.128" cy="22.213" r="0.857"/>
</g>
<g>
	<path fill="#FFFFFF" d="M150.749,20.122c-0.576,0-1.044-0.166-1.403-0.498c-0.36-0.332-0.54-0.763-0.54-1.294
		c0-0.99,0.362-1.873,1.089-2.649s1.553-1.165,2.48-1.165c0.6,0,1.08,0.164,1.443,0.491c0.362,0.327,0.544,0.763,0.544,1.306
		c0,0.996-0.365,1.88-1.097,2.651C152.535,19.736,151.696,20.122,150.749,20.122z M151.174,19.36c0.43,0,0.81-0.281,1.141-0.842
		c0.33-0.562,0.495-1.205,0.495-1.931c0-0.436-0.068-0.763-0.205-0.981s-0.343-0.327-0.62-0.327c-0.424,0-0.8,0.282-1.131,0.845
		c-0.33,0.563-0.495,1.206-0.495,1.929c0,0.397,0.074,0.714,0.222,0.952C150.729,19.242,150.926,19.36,151.174,19.36z"/>
	<path fill="#FFFFFF" d="M155.084,20l0.922-4.639h-0.722l0.142-0.723h2.172l-0.447,2.249c0.382-0.74,0.813-1.32,1.291-1.74
		c0.479-0.42,0.948-0.631,1.408-0.631c0.254,0,0.469,0.094,0.645,0.281c0.176,0.188,0.265,0.415,0.265,0.682
		c0,0.163-0.028,0.388-0.083,0.674l-0.626,3.124h0.723L160.631,20h-2.173l0.723-3.638c0.02-0.094,0.029-0.182,0.029-0.264
		c0-0.202-0.079-0.303-0.239-0.303c-0.475,0-1.16,0.758-2.055,2.275L156.533,20H155.084z"/>
</g>
<g>
	<path fill="#FFFFFF" d="M147.702,28.784l0.922-4.639h-0.722l0.146-0.723h2.046l-0.472,2.264h0.078
		c0.397-0.755,0.826-1.341,1.287-1.759s0.911-0.627,1.351-0.627c0.244,0,0.445,0.087,0.603,0.262
		c0.158,0.174,0.237,0.396,0.237,0.666c0,0.143-0.032,0.359-0.098,0.648l-0.182,0.807h0.078c0.385-0.743,0.813-1.326,1.284-1.749
		c0.471-0.423,0.93-0.634,1.377-0.634c0.247,0,0.451,0.096,0.61,0.288c0.16,0.192,0.24,0.437,0.24,0.731
		c0,0.16-0.024,0.36-0.073,0.602l-0.619,3.14h0.724l-0.146,0.723h-2.109l0.69-3.477c0.036-0.179,0.054-0.308,0.054-0.386
		c0-0.219-0.086-0.327-0.259-0.327c-0.399,0-1.06,0.726-1.979,2.178l-0.4,2.012h-1.387l0.69-3.477
		c0.036-0.179,0.054-0.308,0.054-0.386c0-0.219-0.088-0.327-0.263-0.327c-0.396,0-1.055,0.726-1.977,2.179l-0.404,2.011H147.702z"/>
	<path fill="#FFFFFF" d="M156.463,30.713c0.671-0.473,1.267-1.018,1.787-1.636l0.322-0.391c0-1.602-0.315-3.115-0.947-4.541h-0.42
		l0.146-0.723h1.67c0.433,1.106,0.698,2.357,0.796,3.754l0.684-0.829c0.71-0.844,1.064-1.502,1.064-1.978
		c0-0.325-0.159-0.642-0.479-0.947h1.621c0.107,0.186,0.161,0.356,0.161,0.513c0,0.287-0.096,0.591-0.288,0.913
		s-0.599,0.864-1.221,1.626l-1.514,1.846c-0.876,1.068-1.453,1.865-1.733,2.393H156.463z"/>
</g>
</svg>
